<svg xmlns="http://www.w3.org/2000/svg" xmlns:xlink="http://www.w3.org/1999/xlink" width="120" height="120"
    viewBox="0 0 120 120">
    <defs>
        <clipPath id="b">
            <rect width="120" height="120" />
        </clipPath>
    </defs>
    <g id="a" clip-path="url(#b)">
        <g transform="translate(-216 -938)">
            <path
                d="M60,120a59.721,59.721,0,0,1-33.547-10.247,60.174,60.174,0,0,1-21.738-26.4,59.921,59.921,0,0,1,5.532-56.9,60.176,60.176,0,0,1,26.4-21.738,59.92,59.92,0,0,1,56.9,5.532,60.175,60.175,0,0,1,21.738,26.4,59.921,59.921,0,0,1-5.532,56.9,60.174,60.174,0,0,1-26.4,21.738A59.625,59.625,0,0,1,60,120ZM60,2a57.73,57.73,0,0,0-32.429,9.906A58.17,58.17,0,0,0,6.558,37.424a57.923,57.923,0,0,0,5.348,55,58.17,58.17,0,0,0,25.519,21.014,57.923,57.923,0,0,0,55-5.348,58.17,58.17,0,0,0,21.014-25.518,57.924,57.924,0,0,0-5.348-55A58.169,58.169,0,0,0,82.576,6.558,57.635,57.635,0,0,0,60,2Z"
                transform="translate(216 938)" fill="#7dc7f9" />
            <path
                d="M42,84A42.011,42.011,0,0,1,25.652,3.3a42.011,42.011,0,0,1,32.7,77.4A41.737,41.737,0,0,1,42,84ZM42,2A40.011,40.011,0,0,0,26.43,78.857,40.01,40.01,0,0,0,57.57,5.143,39.748,39.748,0,0,0,42,2Z"
                transform="translate(234 956)" opacity="0.899" />
            <path
                d="M42-4c.363,0,.731,0,1.094.013L43,.012Q42.578,0,42.153,0H42ZM53.91-2.442c.351.094.706.193,1.055.3L53.84,1.692h0c-.318-.093-.64-.183-.961-.269Zm11.1,4.6c.314.182.631.37.941.56L63.868,6.135l0,0-.005,0-.009-.005,0,0-.009-.006,0,0-.01-.006,0,0L63.807,6.1l0,0-.012-.007h0l-.012-.007h0q-.311-.189-.625-.372h0L63.14,5.7h0l-.011-.006,0,0-.01-.006,0,0L63.1,5.677l-.006,0-.007,0-.007,0-.005,0-.008,0-.005,0-.009-.005,0,0-.011-.006h0l-.012-.007h0l-.013-.008ZM74.534,9.48c.257.257.514.52.765.783l-2.9,2.76-.164-.171,0,0-.008-.008-.006-.006,0,0-.009-.009,0,0c-.1-.1-.2-.208-.3-.312l0,0-.009-.009,0,0-.008-.008,0,0-.007-.007,0,0-.005-.005-.007-.007,0,0-.008-.008,0,0-.01-.01h0l-.126-.127Zm7.314,9.525c.182.315.363.636.537.955l-3.51,1.919q-.11-.2-.221-.4h0l-.015-.027h0l-.007-.013h0l-.007-.012,0,0-.006-.011,0,0-.006-.011,0,0-.006-.011,0,0-.006-.01,0-.005,0-.009,0-.005,0-.008,0-.006,0-.008,0-.007,0-.006,0-.008,0-.006,0-.008,0-.005,0-.009,0,0-.005-.009,0,0-.006-.01,0,0-.006-.011v0l-.006-.011v0l-.007-.012h0l-.117-.2Zm4.6,11.1c.094.351.185.709.27,1.062l-3.888.938c-.037-.152-.074-.3-.113-.455h0l0-.015h0l0-.015h0l0-.014h0l0-.014h0l0-.014h0l0-.014h0l-.017-.067,0-.009v0l0-.011v0l0-.013h0l0-.014h0q-.039-.149-.078-.3ZM84,42.019l4,0c0,.363,0,.731-.013,1.093l-4-.1q.005-.212.008-.425V42.47c0-.024,0-.049,0-.073v-.143Q84,42.137,84,42.019ZM82.573,52.895l3.864,1.035c-.094.351-.194.706-.3,1.055L82.3,53.858q.141-.479.27-.963Zm-4.206,10.13,3.461,2.005c-.182.314-.371.631-.56.941l-3.412-2.087Q78.116,63.458,78.367,63.025Zm-6.688,8.694,2.827,2.83c-.257.257-.521.514-.784.764l-2.759-2.9.088-.084,0,0,.007-.006.005-.005,0,0,.009-.008h0Q71.382,72.014,71.678,71.718Zm-8.7,6.677,2,3.464c-.315.182-.636.362-.955.536L62.1,78.885l.249-.137h0l.012-.006,0,0,.01-.006.005,0,.008,0,.007,0,.007,0,.008,0,.006,0,.008,0,.005,0,.01-.005,0,0,.011-.006h0l.013-.007h0l.013-.007h0l.013-.007h0q.239-.134.475-.27ZM52.84,82.588l1.03,3.865c-.351.094-.709.184-1.062.269l-.937-3.889.213-.052.012,0,.013,0,.014,0,.011,0h0l.013,0h0Q52.5,82.679,52.84,82.588Zm-11.878,1.4c.265.006.528.01.794.012h.206l0,4c-.363,0-.731,0-1.093-.014l.1-4ZM30.124,82.3c.22.065.439.127.661.188h0l.013,0h0l.014,0h0l.012,0,.257.07L30.05,86.432c-.351-.094-.706-.194-1.055-.3ZM20.1,77.845q.317.194.638.383h0l.012.007,0,0,.009.005.005,0,.007,0,.008,0,0,0,.01.006,0,0,.16.093-2.007,3.46c-.314-.182-.631-.371-.941-.561Zm-8.53-6.9.19.2h0l.009.009,0,0,.008.008,0,0,.007.007,0,0,.006.006.005.006,0,0,.007.007,0,0,.007.007,0,0,.008.009h0c.142.146.283.29.427.434L9.437,74.49c-.257-.257-.514-.521-.764-.784ZM5.106,62.087c.06.11.12.219.181.328h0l.007.013h0l.007.012v0l.006.011v0l.006.01,0,0,0,.008,0,.006,0,.007,0,.008,0,.005,0,.009,0,0,.006.01,0,0,.006.011,0,0,.007.012v0l.007.012v0l.007.013h0q.089.159.18.317l0,0,.006.01,0,.007,0,.007.006.01,0,0,.007.013h0l-3.465,2c-.182-.315-.362-.636-.536-.955l3.511-1.916ZM1.162,51.853l.024.1,0,.009v0q.059.244.122.487h0l0,.015v0l0,.012v0l0,.01,0,.006,0,.009,0,.007,0,.008,0,.008,0,.007,0,.009,0,.006,0,.01v0l0,.01v0l0,.012v0l0,.014h0l.056.211L-2.458,53.85c-.093-.351-.184-.709-.269-1.062ZM-3.986,40.845l4,.1v.006h0v.073C0,41.33,0,41.635,0,41.943l-4-.005C-4,41.575-3.995,41.207-3.986,40.845Zm1.857-11.869,3.837,1.131q-.086.291-.167.583h0l0,.015h0l0,.01,0,.007v0c-.032.114-.063.23-.094.345L-2.426,30.03C-2.332,29.679-2.232,29.324-2.129,28.975ZM2.754,17.994l3.41,2.09c-.131.214-.259.426-.386.643v0l-.007.011,0,0-.006.01,0,.006,0,.007-.1.177L2.193,18.934C2.375,18.62,2.564,18.3,2.754,17.994Zm7.555-9.335,2.756,2.9q-.243.231-.481.464l-.006.006-.23.227L9.524,9.422C9.781,9.166,10.045,8.909,10.309,8.658Zm9.706-7.074L21.929,5.1q-.439.239-.872.489l-2-3.466C19.374,1.939,19.7,1.759,20.015,1.585ZM31.232-2.732l.933,3.89-.3.074h0l-.014,0h0l-.014,0-.015,0-.015,0-.015,0-.471.121-.015,0-.015,0-.015,0-.012,0h0l-.013,0h0l-.014,0h0L31.2,1.4,30.17-2.464C30.521-2.557,30.879-2.647,31.232-2.732Z"
                transform="translate(234 956)" fill="#7dc7f9" />
            <circle cx="2.5" cy="2.5" r="2.5" transform="translate(274 943.5)" fill="#fcbb40" />
        </g>
    </g>
</svg>